<svg width="18" height="18" viewBox="0 0 18 18" fill="none" xmlns="http://www.w3.org/2000/svg">
<path d="M15.4204 13.8296L12.5646 10.9738C13.1546 10.0845 13.5 9.01969 13.5 7.875C13.5 4.77338 10.9766 2.25 7.875 2.25C4.77338 2.25 2.25 4.77338 2.25 7.875C2.25 10.9766 4.77338 13.5 7.875 13.5C9.01969 13.5 10.0845 13.1546 10.9738 12.5646L13.8296 15.4204C14.2684 15.8597 14.9816 15.8597 15.4204 15.4204C15.8597 14.9811 15.8597 14.2689 15.4204 13.8296ZM3.9375 7.875C3.9375 5.70375 5.70375 3.9375 7.875 3.9375C10.0462 3.9375 11.8125 5.70375 11.8125 7.875C11.8125 10.0462 10.0462 11.8125 7.875 11.8125C5.70375 11.8125 3.9375 10.0462 3.9375 7.875Z" fill="#5F5F5F"/>
</svg>
