<svg width="25" height="23" viewBox="0 0 25 23" fill="none" xmlns="http://www.w3.org/2000/svg">
<path d="M21.608 11.5C21.608 16.1944 17.8024 20 13.108 20C12.0312 20 11.0012 19.7998 10.0532 19.4345C9.87985 19.3678 9.79318 19.3344 9.72426 19.3185C9.65647 19.3029 9.6074 19.2963 9.53789 19.2937C9.46721 19.291 9.38967 19.299 9.23459 19.315L4.11357 19.8444C3.62532 19.8948 3.3812 19.9201 3.2372 19.8322C3.11177 19.7557 3.02634 19.6279 3.0036 19.4828C2.97749 19.3161 3.09415 19.1002 3.32746 18.6684L4.96312 15.6408C5.09782 15.3915 5.16517 15.2668 5.19568 15.1469C5.2258 15.0286 5.23309 14.9432 5.22345 14.8214C5.21369 14.6981 5.15959 14.5376 5.0514 14.2166C4.76387 13.3636 4.60802 12.45 4.60802 11.5C4.60802 6.80558 8.4136 3 13.108 3C17.8024 3 21.608 6.80558 21.608 11.5Z" fill="#5F5F5F" stroke="#5F5F5F" stroke-width="5.33333" stroke-linecap="round" stroke-linejoin="round"/>
<rect x="7" y="10" width="3" height="3" rx="1.5" fill="white"/>
<rect x="17" y="10" width="3" height="3" rx="1.5" fill="white"/>
<rect x="12" y="10" width="3" height="3" rx="1.5" fill="white"/>
</svg>
