<svg width="30" height="30" viewBox="0 0 30 30" fill="none" xmlns="http://www.w3.org/2000/svg">
<rect width="30" height="30" rx="15" fill="#E9E9E9"/>
<path fill-rule="evenodd" clip-rule="evenodd" d="M3 15C3 13.8954 3.89544 13 5 13C6.10456 13 7 13.8954 7 15C7 16.1046 6.10456 17 5 17C3.89544 17 3 16.1046 3 15ZM13 15C13 13.8954 13.8954 13 15 13C16.1046 13 17 13.8954 17 15C17 16.1046 16.1046 17 15 17C13.8954 17 13 16.1046 13 15ZM23 15C23 13.8954 23.8954 13 25 13C26.1046 13 27 13.8954 27 15C27 16.1046 26.1046 17 25 17C23.8954 17 23 16.1046 23 15Z" fill="#5F5F5F"/>
</svg>
