<svg width="78" height="48" viewBox="0 0 78 48" fill="none" xmlns="http://www.w3.org/2000/svg">
<path d="M32 20C32 16.6863 34.2386 14 37 14C39.7614 14 42 16.6863 42 20V21.8309C42 23.2503 42.3214 24.6429 42.93 25.8599L43.3912 26.7823C43.697 27.3941 43.85 27.7 43.8604 27.9497C43.8767 28.3366 43.7053 28.6999 43.4204 28.8823C43.2366 29 42.9394 29 42.3449 29H31.6553C31.0607 29 30.7635 29 30.5796 28.8823C30.2948 28.6999 30.1234 28.3366 30.1396 27.9497C30.1501 27.7 30.303 27.3941 30.6089 26.7823L31.0701 25.8599C31.6786 24.6429 32 23.2503 32 21.831V20Z" fill="#5F5F5F"/>
<path d="M38.9583 30C39.0273 30 39.0839 30.0673 39.0775 30.1498C39.0403 30.6254 38.8269 31.0746 38.4731 31.4142C38.0824 31.7893 37.5525 32 37 32C36.4475 32 35.9176 31.7893 35.5268 31.4142C35.1731 31.0746 34.9597 30.6254 34.9225 30.1498C34.916 30.0673 34.9726 30 35.0416 30H37H38.9583Z" fill="#5F5F5F"/>
</svg>
